<svg xmlns="http://www.w3.org/2000/svg" xmlns:xlink="http://www.w3.org/1999/xlink" contentStyleType="text/css" data-diagram-type="CLASS" height="979px" preserveAspectRatio="none" style="width:2139px;height:979px;background:#FFFFFF;" version="1.1" viewBox="0 0 2139 979" width="2139px" zoomAndPan="magnify"><title>HOSPITALPLATFORM | PostgreSQL V5: n&#250;cleo de pacientes y citas</title><defs/><g><g class="title" data-source-line="1"><text fill="#123B52" font-family="Segoe UI" font-size="14" font-weight="bold" lengthAdjust="spacing" textLength="434.041" x="845.8608" y="25.1074">HOSPITALPLATFORM | PostgreSQL V5: n&#250;cleo de pacientes y citas</text></g><!--class users--><g class="entity" data-entity="users" data-source-line="18" data-uid="ent0002" id="entity_users"><rect fill="#F1F1F1" height="252.832" rx="2.5" ry="2.5" style="stroke:#181818;stroke-width:0.5;" width="231.9941" x="7" y="253.6211"/><ellipse cx="102.751" cy="269.6211" fill="#ADD1B2" rx="11" ry="11" style="stroke:#181818;stroke-width:1;"/><path d="M101.6104,270.418 L101.6104,272.918 L105.9385,272.918 L105.9385,271.9961 Q105.9385,271.3867 106.1729,271.1211 Q106.4229,270.8555 106.7979,270.8555 Q107.1729,270.8555 107.4072,271.1211 Q107.6416,271.3867 107.6416,271.9961 L107.6416,274.6211 L99.6416,274.6211 Q99.0166,274.6211 98.751,274.3867 Q98.501,274.1523 98.501,273.7617 Q98.501,273.3867 98.7666,273.1523 Q99.0322,272.918 99.6416,272.918 L99.9072,272.918 L99.9072,266.2617 L99.6416,266.2617 Q99.0166,266.2617 98.751,266.0273 Q98.501,265.793 98.501,265.4023 Q98.501,265.0273 98.751,264.793 Q99.0166,264.5586 99.6416,264.5586 L107.2666,264.5586 L107.2666,267.1523 Q107.2666,267.7617 107.0322,268.0273 Q106.8135,268.2773 106.4229,268.2773 Q106.0479,268.2773 105.8135,268.0273 Q105.5791,267.7617 105.5791,267.1523 L105.5791,266.2617 L101.6104,266.2617 L101.6104,268.7148 L103.0947,268.7148 Q103.0947,268.0586 103.2197,267.8711 Q103.4854,267.4648 103.9541,267.4648 Q104.3291,267.4648 104.5635,267.7305 Q104.7979,267.9805 104.7979,268.5898 L104.7979,270.5586 Q104.7979,271.1055 104.6729,271.293 Q104.4072,271.6836 103.9541,271.6836 Q103.4854,271.6836 103.2197,271.2773 Q103.0947,271.0898 103.0947,270.418 L101.6104,270.418 Z " fill="#123B52"/><text fill="#123B52" font-family="Segoe UI" font-size="14" lengthAdjust="spacing" textLength="31.9922" x="123.251" y="275.418">users</text><line style="stroke:#181818;stroke-width:0.5;" x1="8" x2="237.9941" y1="285.6211" y2="285.6211"/><text fill="#123B52" font-family="Segoe UI" font-size="14" lengthAdjust="spacing" textLength="78.0664" x="13" y="304.7285">id : uuid [PK]</text><text fill="#123B52" font-family="Segoe UI" font-size="14" lengthAdjust="spacing" textLength="179.8057" x="13" y="323.3496">username : varchar[100] [UQ]</text><text fill="#123B52" font-family="Segoe UI" font-size="14" lengthAdjust="spacing" textLength="152.6123" x="13" y="341.9707">email : varchar[255] [UQ]</text><text fill="#123B52" font-family="Segoe UI" font-size="14" lengthAdjust="spacing" textLength="127.3262" x="13" y="360.5918">password_hash : text</text><text fill="#123B52" font-family="Segoe UI" font-size="14" lengthAdjust="spacing" textLength="195.9863" x="13" y="379.2129">first_name : varchar[100] [NULL]</text><text fill="#123B52" font-family="Segoe UI" font-size="14" lengthAdjust="spacing" textLength="193.8604" x="13" y="397.834">last_name : varchar[100] [NULL]</text><text fill="#123B52" font-family="Segoe UI" font-size="14" lengthAdjust="spacing" textLength="110.6533" x="13" y="416.4551">enabled : boolean</text><text fill="#123B52" font-family="Segoe UI" font-size="14" lengthAdjust="spacing" textLength="186.1357" x="13" y="435.0762">deleted_at : timestamp [NULL]</text><text fill="#123B52" font-family="Segoe UI" font-size="14" lengthAdjust="spacing" textLength="140.082" x="13" y="453.6973">created_at : timestamp</text><text fill="#123B52" font-family="Segoe UI" font-size="14" lengthAdjust="spacing" textLength="145.8242" x="13" y="472.3184">updated_at : timestamp</text><line style="stroke:#181818;stroke-width:1;" x1="8" x2="237.9941" y1="479.832" y2="479.832"/><text fill="#123B52" font-family="Segoe UI" font-size="14" lengthAdjust="spacing" textLength="219.9941" x="13" y="498.9395">CHECK email y username can&#243;nicos</text></g><!--class roles--><g class="entity" data-entity="roles" data-source-line="33" data-uid="ent0003" id="entity_roles"><rect fill="#F1F1F1" height="141.1055" rx="2.5" ry="2.5" style="stroke:#181818;stroke-width:0.5;" width="160.2168" x="43" y="46.6211"/><ellipse cx="103.9971" cy="62.6211" fill="#ADD1B2" rx="11" ry="11" style="stroke:#181818;stroke-width:1;"/><path d="M102.8564,63.418 L102.8564,65.918 L107.1846,65.918 L107.1846,64.9961 Q107.1846,64.3867 107.4189,64.1211 Q107.6689,63.8555 108.0439,63.8555 Q108.4189,63.8555 108.6533,64.1211 Q108.8877,64.3867 108.8877,64.9961 L108.8877,67.6211 L100.8877,67.6211 Q100.2627,67.6211 99.9971,67.3867 Q99.7471,67.1523 99.7471,66.7617 Q99.7471,66.3867 100.0127,66.1523 Q100.2783,65.918 100.8877,65.918 L101.1533,65.918 L101.1533,59.2617 L100.8877,59.2617 Q100.2627,59.2617 99.9971,59.0273 Q99.7471,58.793 99.7471,58.4023 Q99.7471,58.0273 99.9971,57.793 Q100.2627,57.5586 100.8877,57.5586 L108.5127,57.5586 L108.5127,60.1523 Q108.5127,60.7617 108.2783,61.0273 Q108.0596,61.2773 107.6689,61.2773 Q107.2939,61.2773 107.0596,61.0273 Q106.8252,60.7617 106.8252,60.1523 L106.8252,59.2617 L102.8564,59.2617 L102.8564,61.7148 L104.3408,61.7148 Q104.3408,61.0586 104.4658,60.8711 Q104.7314,60.4648 105.2002,60.4648 Q105.5752,60.4648 105.8096,60.7305 Q106.0439,60.9805 106.0439,61.5898 L106.0439,63.5586 Q106.0439,64.1055 105.9189,64.293 Q105.6533,64.6836 105.2002,64.6836 Q104.7314,64.6836 104.4658,64.2773 Q104.3408,64.0898 104.3408,63.418 L102.8564,63.418 Z " fill="#123B52"/><text fill="#123B52" font-family="Segoe UI" font-size="14" lengthAdjust="spacing" textLength="29.7227" x="124.4971" y="68.418">roles</text><line style="stroke:#181818;stroke-width:0.5;" x1="44" x2="202.2168" y1="78.6211" y2="78.6211"/><text fill="#123B52" font-family="Segoe UI" font-size="14" lengthAdjust="spacing" textLength="78.0664" x="49" y="97.7285">id : uuid [PK]</text><text fill="#123B52" font-family="Segoe UI" font-size="14" lengthAdjust="spacing" textLength="146.207" x="49" y="116.3496">name : varchar[50] [UQ]</text><text fill="#123B52" font-family="Segoe UI" font-size="14" lengthAdjust="spacing" textLength="148.2168" x="49" y="134.9707">description : text [NULL]</text><text fill="#123B52" font-family="Segoe UI" font-size="14" lengthAdjust="spacing" textLength="140.082" x="49" y="153.5918">created_at : timestamp</text><text fill="#123B52" font-family="Segoe UI" font-size="14" lengthAdjust="spacing" textLength="145.8242" x="49" y="172.2129">updated_at : timestamp</text><line style="stroke:#181818;stroke-width:0.5;" x1="44" x2="202.2168" y1="179.7266" y2="179.7266"/></g><!--class user_roles--><g class="entity" data-entity="user_roles" data-source-line="41" data-uid="ent0004" id="entity_user_roles"><rect fill="#F1F1F1" height="85.2422" rx="2.5" ry="2.5" style="stroke:#181818;stroke-width:0.5;" width="143.7559" x="345.5" y="74.6211"/><ellipse cx="383.0769" cy="90.6211" fill="#ADD1B2" rx="11" ry="11" style="stroke:#181818;stroke-width:1;"/><path d="M381.9363,91.418 L381.9363,93.918 L386.2644,93.918 L386.2644,92.9961 Q386.2644,92.3867 386.4988,92.1211 Q386.7488,91.8555 387.1238,91.8555 Q387.4988,91.8555 387.7332,92.1211 Q387.9675,92.3867 387.9675,92.9961 L387.9675,95.6211 L379.9675,95.6211 Q379.3425,95.6211 379.0769,95.3867 Q378.8269,95.1523 378.8269,94.7617 Q378.8269,94.3867 379.0925,94.1523 Q379.3582,93.918 379.9675,93.918 L380.2332,93.918 L380.2332,87.2617 L379.9675,87.2617 Q379.3425,87.2617 379.0769,87.0273 Q378.8269,86.793 378.8269,86.4023 Q378.8269,86.0273 379.0769,85.793 Q379.3425,85.5586 379.9675,85.5586 L387.5925,85.5586 L387.5925,88.1523 Q387.5925,88.7617 387.3582,89.0273 Q387.1394,89.2773 386.7488,89.2773 Q386.3738,89.2773 386.1394,89.0273 Q385.905,88.7617 385.905,88.1523 L385.905,87.2617 L381.9363,87.2617 L381.9363,89.7148 L383.4207,89.7148 Q383.4207,89.0586 383.5457,88.8711 Q383.8113,88.4648 384.28,88.4648 Q384.655,88.4648 384.8894,88.7305 Q385.1238,88.9805 385.1238,89.5898 L385.1238,91.5586 Q385.1238,92.1055 384.9988,92.293 Q384.7332,92.6836 384.28,92.6836 Q383.8113,92.6836 383.5457,92.2773 Q383.4207,92.0898 383.4207,91.418 L381.9363,91.418 Z " fill="#123B52"/><text fill="#123B52" font-family="Segoe UI" font-size="14" lengthAdjust="spacing" textLength="61.585" x="402.094" y="96.418">user_roles</text><line style="stroke:#181818;stroke-width:0.5;" x1="346.5" x2="488.2559" y1="106.6211" y2="106.6211"/><text fill="#123B52" font-family="Segoe UI" font-size="14" lengthAdjust="spacing" textLength="131.7559" x="351.5" y="125.7285">user_id : uuid [PK, FK]</text><text fill="#123B52" font-family="Segoe UI" font-size="14" lengthAdjust="spacing" textLength="129.4863" x="351.5" y="144.3496">role_id : uuid [PK, FK]</text><line style="stroke:#181818;stroke-width:0.5;" x1="346.5" x2="488.2559" y1="151.8633" y2="151.8633"/></g><!--class patients--><g class="entity" data-entity="patients" data-source-line="46" data-uid="ent0005" id="entity_patients"><rect fill="#F1F1F1" height="290.0742" rx="2.5" ry="2.5" style="stroke:#181818;stroke-width:0.5;" width="295.0078" x="596" y="266.1211"/><ellipse cx="714.5454" cy="282.1211" fill="#ADD1B2" rx="11" ry="11" style="stroke:#181818;stroke-width:1;"/><path d="M713.4048,282.918 L713.4048,285.418 L717.7329,285.418 L717.7329,284.4961 Q717.7329,283.8867 717.9673,283.6211 Q718.2173,283.3555 718.5923,283.3555 Q718.9673,283.3555 719.2017,283.6211 Q719.436,283.8867 719.436,284.4961 L719.436,287.1211 L711.436,287.1211 Q710.811,287.1211 710.5454,286.8867 Q710.2954,286.6523 710.2954,286.2617 Q710.2954,285.8867 710.561,285.6523 Q710.8267,285.418 711.436,285.418 L711.7017,285.418 L711.7017,278.7617 L711.436,278.7617 Q710.811,278.7617 710.5454,278.5273 Q710.2954,278.293 710.2954,277.9023 Q710.2954,277.5273 710.5454,277.293 Q710.811,277.0586 711.436,277.0586 L719.061,277.0586 L719.061,279.6523 Q719.061,280.2617 718.8267,280.5273 Q718.6079,280.7773 718.2173,280.7773 Q717.8423,280.7773 717.6079,280.5273 Q717.3735,280.2617 717.3735,279.6523 L717.3735,278.7617 L713.4048,278.7617 L713.4048,281.2148 L714.8892,281.2148 Q714.8892,280.5586 715.0142,280.3711 Q715.2798,279.9648 715.7485,279.9648 Q716.1235,279.9648 716.3579,280.2305 Q716.5923,280.4805 716.5923,281.0898 L716.5923,283.0586 Q716.5923,283.6055 716.4673,283.793 Q716.2017,284.1836 715.7485,284.1836 Q715.2798,284.1836 715.0142,283.7773 Q714.8892,283.5898 714.8892,282.918 L713.4048,282.918 Z " fill="#123B52"/><text fill="#123B52" font-family="Segoe UI" font-size="14" lengthAdjust="spacing" textLength="49.417" x="735.0454" y="287.918">patients</text><line style="stroke:#181818;stroke-width:0.5;" x1="597" x2="890.0078" y1="298.1211" y2="298.1211"/><text fill="#123B52" font-family="Segoe UI" font-size="14" lengthAdjust="spacing" textLength="78.0664" x="602" y="317.2285">id : uuid [PK]</text><text fill="#123B52" font-family="Segoe UI" font-size="14" lengthAdjust="spacing" textLength="176.1074" x="602" y="335.8496">user_id : uuid [FK, UQ, NULL]</text><text fill="#123B52" font-family="Segoe UI" font-size="14" lengthAdjust="spacing" textLength="175.0889" x="602" y="354.4707">document_type : varchar[50]</text><text fill="#123B52" font-family="Segoe UI" font-size="14" lengthAdjust="spacing" textLength="196.3418" x="602" y="373.0918">document_number : varchar[50]</text><text fill="#123B52" font-family="Segoe UI" font-size="14" lengthAdjust="spacing" textLength="146.0908" x="602" y="391.7129">birth_date : date [NULL]</text><text fill="#123B52" font-family="Segoe UI" font-size="14" lengthAdjust="spacing" textLength="164.4795" x="602" y="410.334">phone : varchar[50] [NULL]</text><text fill="#123B52" font-family="Segoe UI" font-size="14" lengthAdjust="spacing" textLength="127.1758" x="602" y="428.9551">address : text [NULL]</text><text fill="#123B52" font-family="Segoe UI" font-size="14" lengthAdjust="spacing" textLength="186.1357" x="602" y="447.5762">deleted_at : timestamp [NULL]</text><text fill="#123B52" font-family="Segoe UI" font-size="14" lengthAdjust="spacing" textLength="140.082" x="602" y="466.1973">created_at : timestamp</text><text fill="#123B52" font-family="Segoe UI" font-size="14" lengthAdjust="spacing" textLength="145.8242" x="602" y="484.8184">updated_at : timestamp</text><text fill="#123B52" font-family="Segoe UI" font-size="14" lengthAdjust="spacing" textLength="191.3037" x="602" y="503.4395">insurance : varchar[150] [NULL]</text><line style="stroke:#181818;stroke-width:1;" x1="597" x2="890.0078" y1="510.9531" y2="510.9531"/><text fill="#123B52" font-family="Segoe UI" font-size="14" lengthAdjust="spacing" textLength="283.0078" x="602" y="530.0605">UNIQUE (document_type, document_number)</text><text fill="#123B52" font-family="Segoe UI" font-size="14" lengthAdjust="spacing" textLength="219.0713" x="602" y="548.6816">CHECK DNI / CE / PASSPORT v&#225;lido</text></g><!--class professionals--><g class="entity" data-entity="professionals" data-source-line="63" data-uid="ent0006" id="entity_professionals"><rect fill="#F1F1F1" height="178.3477" rx="2.5" ry="2.5" style="stroke:#181818;stroke-width:0.5;" width="236.9502" x="299" y="545.1211"/><ellipse cx="372.7974" cy="561.1211" fill="#ADD1B2" rx="11" ry="11" style="stroke:#181818;stroke-width:1;"/><path d="M371.6567,561.918 L371.6567,564.418 L375.9849,564.418 L375.9849,563.4961 Q375.9849,562.8867 376.2192,562.6211 Q376.4692,562.3555 376.8442,562.3555 Q377.2192,562.3555 377.4536,562.6211 Q377.688,562.8867 377.688,563.4961 L377.688,566.1211 L369.688,566.1211 Q369.063,566.1211 368.7974,565.8867 Q368.5474,565.6523 368.5474,565.2617 Q368.5474,564.8867 368.813,564.6523 Q369.0786,564.418 369.688,564.418 L369.9536,564.418 L369.9536,557.7617 L369.688,557.7617 Q369.063,557.7617 368.7974,557.5273 Q368.5474,557.293 368.5474,556.9023 Q368.5474,556.5273 368.7974,556.293 Q369.063,556.0586 369.688,556.0586 L377.313,556.0586 L377.313,558.6523 Q377.313,559.2617 377.0786,559.5273 Q376.8599,559.7773 376.4692,559.7773 Q376.0942,559.7773 375.8599,559.5273 Q375.6255,559.2617 375.6255,558.6523 L375.6255,557.7617 L371.6567,557.7617 L371.6567,560.2148 L373.1411,560.2148 Q373.1411,559.5586 373.2661,559.3711 Q373.5317,558.9648 374.0005,558.9648 Q374.3755,558.9648 374.6099,559.2305 Q374.8442,559.4805 374.8442,560.0898 L374.8442,562.0586 Q374.8442,562.6055 374.7192,562.793 Q374.4536,563.1836 374.0005,563.1836 Q373.5317,563.1836 373.2661,562.7773 Q373.1411,562.5898 373.1411,561.918 L371.6567,561.918 Z " fill="#123B52"/><text fill="#123B52" font-family="Segoe UI" font-size="14" lengthAdjust="spacing" textLength="80.8555" x="393.2974" y="566.918">professionals</text><line style="stroke:#181818;stroke-width:0.5;" x1="300" x2="534.9502" y1="577.1211" y2="577.1211"/><text fill="#123B52" font-family="Segoe UI" font-size="14" lengthAdjust="spacing" textLength="78.0664" x="305" y="596.2285">id : uuid [PK]</text><text fill="#123B52" font-family="Segoe UI" font-size="14" lengthAdjust="spacing" textLength="176.1074" x="305" y="614.8496">user_id : uuid [FK, UQ, NULL]</text><text fill="#123B52" font-family="Segoe UI" font-size="14" lengthAdjust="spacing" textLength="215.2158" x="305" y="633.4707">license_number : varchar[100] [UQ]</text><text fill="#123B52" font-family="Segoe UI" font-size="14" lengthAdjust="spacing" textLength="186.1357" x="305" y="652.0918">deleted_at : timestamp [NULL]</text><text fill="#123B52" font-family="Segoe UI" font-size="14" lengthAdjust="spacing" textLength="140.082" x="305" y="670.7129">created_at : timestamp</text><text fill="#123B52" font-family="Segoe UI" font-size="14" lengthAdjust="spacing" textLength="145.8242" x="305" y="689.334">updated_at : timestamp</text><line style="stroke:#181818;stroke-width:1;" x1="300" x2="534.9502" y1="696.8477" y2="696.8477"/><text fill="#123B52" font-family="Segoe UI" font-size="14" lengthAdjust="spacing" textLength="224.9502" x="305" y="715.9551">CHECK license_number: 4 a 6 d&#237;gitos</text></g><!--class specialties--><g class="entity" data-entity="specialties" data-source-line="74" data-uid="ent0007" id="entity_specialties"><rect fill="#F1F1F1" height="178.3477" rx="2.5" ry="2.5" style="stroke:#181818;stroke-width:0.5;" width="198.1357" x="318.5" y="770.1211"/><ellipse cx="381.688" cy="786.1211" fill="#ADD1B2" rx="11" ry="11" style="stroke:#181818;stroke-width:1;"/><path d="M380.5474,786.918 L380.5474,789.418 L384.8755,789.418 L384.8755,788.4961 Q384.8755,787.8867 385.1099,787.6211 Q385.3599,787.3555 385.7349,787.3555 Q386.1099,787.3555 386.3442,787.6211 Q386.5786,787.8867 386.5786,788.4961 L386.5786,791.1211 L378.5786,791.1211 Q377.9536,791.1211 377.688,790.8867 Q377.438,790.6523 377.438,790.2617 Q377.438,789.8867 377.7036,789.6523 Q377.9692,789.418 378.5786,789.418 L378.8442,789.418 L378.8442,782.7617 L378.5786,782.7617 Q377.9536,782.7617 377.688,782.5273 Q377.438,782.293 377.438,781.9023 Q377.438,781.5273 377.688,781.293 Q377.9536,781.0586 378.5786,781.0586 L386.2036,781.0586 L386.2036,783.6523 Q386.2036,784.2617 385.9692,784.5273 Q385.7505,784.7773 385.3599,784.7773 Q384.9849,784.7773 384.7505,784.5273 Q384.5161,784.2617 384.5161,783.6523 L384.5161,782.7617 L380.5474,782.7617 L380.5474,785.2148 L382.0317,785.2148 Q382.0317,784.5586 382.1567,784.3711 Q382.4224,783.9648 382.8911,783.9648 Q383.2661,783.9648 383.5005,784.2305 Q383.7349,784.4805 383.7349,785.0898 L383.7349,787.0586 Q383.7349,787.6055 383.6099,787.793 Q383.3442,788.1836 382.8911,788.1836 Q382.4224,788.1836 382.1567,787.7773 Q382.0317,787.5898 382.0317,786.918 L380.5474,786.918 Z " fill="#123B52"/><text fill="#123B52" font-family="Segoe UI" font-size="14" lengthAdjust="spacing" textLength="63.2598" x="402.188" y="791.918">specialties</text><line style="stroke:#181818;stroke-width:0.5;" x1="319.5" x2="515.6357" y1="802.1211" y2="802.1211"/><text fill="#123B52" font-family="Segoe UI" font-size="14" lengthAdjust="spacing" textLength="78.0664" x="324.5" y="821.2285">id : uuid [PK]</text><text fill="#123B52" font-family="Segoe UI" font-size="14" lengthAdjust="spacing" textLength="153.7539" x="324.5" y="839.8496">name : varchar[150] [UQ]</text><text fill="#123B52" font-family="Segoe UI" font-size="14" lengthAdjust="spacing" textLength="148.2168" x="324.5" y="858.4707">description : text [NULL]</text><text fill="#123B52" font-family="Segoe UI" font-size="14" lengthAdjust="spacing" textLength="96.8516" x="324.5" y="877.0918">active : boolean</text><text fill="#123B52" font-family="Segoe UI" font-size="14" lengthAdjust="spacing" textLength="186.1357" x="324.5" y="895.7129">deleted_at : timestamp [NULL]</text><text fill="#123B52" font-family="Segoe UI" font-size="14" lengthAdjust="spacing" textLength="140.082" x="324.5" y="914.334">created_at : timestamp</text><text fill="#123B52" font-family="Segoe UI" font-size="14" lengthAdjust="spacing" textLength="145.8242" x="324.5" y="932.9551">updated_at : timestamp</text><line style="stroke:#181818;stroke-width:0.5;" x1="319.5" x2="515.6357" y1="940.4688" y2="940.4688"/></g><!--class professional_specialties--><g class="entity" data-entity="professional_specialties" data-source-line="84" data-uid="ent0008" id="entity_professional_specialties"><rect fill="#F1F1F1" height="85.2422" rx="2.5" ry="2.5" style="stroke:#181818;stroke-width:0.5;" width="192.6191" x="647" y="733.6211"/><ellipse cx="669.4852" cy="749.6211" fill="#ADD1B2" rx="11" ry="11" style="stroke:#181818;stroke-width:1;"/><path d="M668.3446,750.418 L668.3446,752.918 L672.6727,752.918 L672.6727,751.9961 Q672.6727,751.3867 672.9071,751.1211 Q673.1571,750.8555 673.5321,750.8555 Q673.9071,750.8555 674.1415,751.1211 Q674.3758,751.3867 674.3758,751.9961 L674.3758,754.6211 L666.3758,754.6211 Q665.7508,754.6211 665.4852,754.3867 Q665.2352,754.1523 665.2352,753.7617 Q665.2352,753.3867 665.5008,753.1523 Q665.7665,752.918 666.3758,752.918 L666.6415,752.918 L666.6415,746.2617 L666.3758,746.2617 Q665.7508,746.2617 665.4852,746.0273 Q665.2352,745.793 665.2352,745.4023 Q665.2352,745.0273 665.4852,744.793 Q665.7508,744.5586 666.3758,744.5586 L674.0008,744.5586 L674.0008,747.1523 Q674.0008,747.7617 673.7665,748.0273 Q673.5477,748.2773 673.1571,748.2773 Q672.7821,748.2773 672.5477,748.0273 Q672.3133,747.7617 672.3133,747.1523 L672.3133,746.2617 L668.3446,746.2617 L668.3446,748.7148 L669.829,748.7148 Q669.829,748.0586 669.954,747.8711 Q670.2196,747.4648 670.6883,747.4648 Q671.0633,747.4648 671.2977,747.7305 Q671.5321,747.9805 671.5321,748.5898 L671.5321,750.5586 Q671.5321,751.1055 671.4071,751.293 Q671.1415,751.6836 670.6883,751.6836 Q670.2196,751.6836 669.954,751.2773 Q669.829,751.0898 669.829,750.418 L668.3446,750.418 Z " fill="#123B52"/><text fill="#123B52" font-family="Segoe UI" font-size="14" lengthAdjust="spacing" textLength="143.9854" x="685.1486" y="755.418">professional_specialties</text><line style="stroke:#181818;stroke-width:0.5;" x1="648" x2="838.6191" y1="765.6211" y2="765.6211"/><text fill="#123B52" font-family="Segoe UI" font-size="14" lengthAdjust="spacing" textLength="180.6191" x="653" y="784.7285">professional_id : uuid [PK, FK]</text><text fill="#123B52" font-family="Segoe UI" font-size="14" lengthAdjust="spacing" textLength="159.0859" x="653" y="803.3496">specialty_id : uuid [PK, FK]</text><line style="stroke:#181818;stroke-width:0.5;" x1="648" x2="838.6191" y1="810.8633" y2="810.8633"/></g><!--class schedules--><g class="entity" data-entity="schedules" data-source-line="89" data-uid="ent0009" id="entity_schedules"><rect fill="#F1F1F1" height="290.0742" rx="2.5" ry="2.5" style="stroke:#181818;stroke-width:0.5;" width="303.0537" x="951" y="662.1211"/><ellipse cx="1068.0415" cy="678.1211" fill="#ADD1B2" rx="11" ry="11" style="stroke:#181818;stroke-width:1;"/><path d="M1066.9009,678.918 L1066.9009,681.418 L1071.229,681.418 L1071.229,680.4961 Q1071.229,679.8867 1071.4634,679.6211 Q1071.7134,679.3555 1072.0884,679.3555 Q1072.4634,679.3555 1072.6978,679.6211 Q1072.9321,679.8867 1072.9321,680.4961 L1072.9321,683.1211 L1064.9321,683.1211 Q1064.3071,683.1211 1064.0415,682.8867 Q1063.7915,682.6523 1063.7915,682.2617 Q1063.7915,681.8867 1064.0571,681.6523 Q1064.3228,681.418 1064.9321,681.418 L1065.1978,681.418 L1065.1978,674.7617 L1064.9321,674.7617 Q1064.3071,674.7617 1064.0415,674.5273 Q1063.7915,674.293 1063.7915,673.9023 Q1063.7915,673.5273 1064.0415,673.293 Q1064.3071,673.0586 1064.9321,673.0586 L1072.5571,673.0586 L1072.5571,675.6523 Q1072.5571,676.2617 1072.3228,676.5273 Q1072.104,676.7773 1071.7134,676.7773 Q1071.3384,676.7773 1071.104,676.5273 Q1070.8696,676.2617 1070.8696,675.6523 L1070.8696,674.7617 L1066.9009,674.7617 L1066.9009,677.2148 L1068.3853,677.2148 Q1068.3853,676.5586 1068.5103,676.3711 Q1068.7759,675.9648 1069.2446,675.9648 Q1069.6196,675.9648 1069.854,676.2305 Q1070.0884,676.4805 1070.0884,677.0898 L1070.0884,679.0586 Q1070.0884,679.6055 1069.9634,679.793 Q1069.6978,680.1836 1069.2446,680.1836 Q1068.7759,680.1836 1068.5103,679.7773 Q1068.3853,679.5898 1068.3853,678.918 L1066.9009,678.918 Z " fill="#123B52"/><text fill="#123B52" font-family="Segoe UI" font-size="14" lengthAdjust="spacing" textLength="60.4707" x="1088.5415" y="683.918">schedules</text><line style="stroke:#181818;stroke-width:0.5;" x1="952" x2="1253.0537" y1="694.1211" y2="694.1211"/><text fill="#123B52" font-family="Segoe UI" font-size="14" lengthAdjust="spacing" textLength="78.0664" x="957" y="713.2285">id : uuid [PK]</text><text fill="#123B52" font-family="Segoe UI" font-size="14" lengthAdjust="spacing" textLength="157.7871" x="957" y="731.8496">professional_id : uuid [FK]</text><text fill="#123B52" font-family="Segoe UI" font-size="14" lengthAdjust="spacing" textLength="136.2539" x="957" y="750.4707">specialty_id : uuid [FK]</text><text fill="#123B52" font-family="Segoe UI" font-size="14" lengthAdjust="spacing" textLength="132.583" x="957" y="769.0918">day_of_week : integer</text><text fill="#123B52" font-family="Segoe UI" font-size="14" lengthAdjust="spacing" textLength="98.9639" x="957" y="787.7129">start_time : time</text><text fill="#123B52" font-family="Segoe UI" font-size="14" lengthAdjust="spacing" textLength="95.0332" x="957" y="806.334">end_time : time</text><text fill="#123B52" font-family="Segoe UI" font-size="14" lengthAdjust="spacing" textLength="96.8516" x="957" y="824.9551">active : boolean</text><text fill="#123B52" font-family="Segoe UI" font-size="14" lengthAdjust="spacing" textLength="140.082" x="957" y="843.5762">created_at : timestamp</text><text fill="#123B52" font-family="Segoe UI" font-size="14" lengthAdjust="spacing" textLength="145.8242" x="957" y="862.1973">updated_at : timestamp</text><text fill="#123B52" font-family="Segoe UI" font-size="14" lengthAdjust="spacing" textLength="177.3721" x="957" y="880.8184">capacity_protected : boolean</text><line style="stroke:#181818;stroke-width:1;" x1="952" x2="1253.0537" y1="888.332" y2="888.332"/><text fill="#123B52" font-family="Segoe UI" font-size="14" lengthAdjust="spacing" textLength="291.0537" x="957" y="907.4395">CHECK day_of_week 0..6; end_time &gt; start_time</text><text fill="#123B52" font-family="Segoe UI" font-size="14" lengthAdjust="spacing" textLength="236.8447" x="957" y="926.0605">EXCLUDE profesional + d&#237;a + intervalo</text><text fill="#123B52" font-family="Segoe UI" font-size="14" lengthAdjust="spacing" textLength="178.623" x="957" y="944.6816">active OR capacity_protected</text></g><!--class availability_slots--><g class="entity" data-entity="availability_slots" data-source-line="106" data-uid="ent0010" id="entity_availability_slots"><rect fill="#F1F1F1" height="271.4531" rx="2.5" ry="2.5" style="stroke:#181818;stroke-width:0.5;" width="315.4131" x="1314" y="666.6211"/><ellipse cx="1418.0532" cy="682.6211" fill="#ADD1B2" rx="11" ry="11" style="stroke:#181818;stroke-width:1;"/><path d="M1416.9126,683.418 L1416.9126,685.918 L1421.2407,685.918 L1421.2407,684.9961 Q1421.2407,684.3867 1421.4751,684.1211 Q1421.7251,683.8555 1422.1001,683.8555 Q1422.4751,683.8555 1422.7095,684.1211 Q1422.9438,684.3867 1422.9438,684.9961 L1422.9438,687.6211 L1414.9438,687.6211 Q1414.3188,687.6211 1414.0532,687.3867 Q1413.8032,687.1523 1413.8032,686.7617 Q1413.8032,686.3867 1414.0688,686.1523 Q1414.3345,685.918 1414.9438,685.918 L1415.2095,685.918 L1415.2095,679.2617 L1414.9438,679.2617 Q1414.3188,679.2617 1414.0532,679.0273 Q1413.8032,678.793 1413.8032,678.4023 Q1413.8032,678.0273 1414.0532,677.793 Q1414.3188,677.5586 1414.9438,677.5586 L1422.5688,677.5586 L1422.5688,680.1523 Q1422.5688,680.7617 1422.3345,681.0273 Q1422.1157,681.2773 1421.7251,681.2773 Q1421.3501,681.2773 1421.1157,681.0273 Q1420.8813,680.7617 1420.8813,680.1523 L1420.8813,679.2617 L1416.9126,679.2617 L1416.9126,681.7148 L1418.397,681.7148 Q1418.397,681.0586 1418.522,680.8711 Q1418.7876,680.4648 1419.2563,680.4648 Q1419.6313,680.4648 1419.8657,680.7305 Q1420.1001,680.9805 1420.1001,681.5898 L1420.1001,683.5586 Q1420.1001,684.1055 1419.9751,684.293 Q1419.7095,684.6836 1419.2563,684.6836 Q1418.7876,684.6836 1418.522,684.2773 Q1418.397,684.0898 1418.397,683.418 L1416.9126,683.418 Z " fill="#123B52"/><text fill="#123B52" font-family="Segoe UI" font-size="14" lengthAdjust="spacing" textLength="98.8066" x="1438.5532" y="688.418">availability_slots</text><line style="stroke:#181818;stroke-width:0.5;" x1="1315" x2="1628.4131" y1="698.6211" y2="698.6211"/><text fill="#123B52" font-family="Segoe UI" font-size="14" lengthAdjust="spacing" textLength="78.0664" x="1320" y="717.7285">id : uuid [PK]</text><text fill="#123B52" font-family="Segoe UI" font-size="14" lengthAdjust="spacing" textLength="137.4023" x="1320" y="736.3496">schedule_id : uuid [FK]</text><text fill="#123B52" font-family="Segoe UI" font-size="14" lengthAdjust="spacing" textLength="93.6592" x="1320" y="754.9707">slot_date : date</text><text fill="#123B52" font-family="Segoe UI" font-size="14" lengthAdjust="spacing" textLength="98.9639" x="1320" y="773.5918">start_time : time</text><text fill="#123B52" font-family="Segoe UI" font-size="14" lengthAdjust="spacing" textLength="95.0332" x="1320" y="792.2129">end_time : time</text><text fill="#123B52" font-family="Segoe UI" font-size="14" lengthAdjust="spacing" textLength="115.7393" x="1320" y="810.834">status : varchar[30]</text><text fill="#123B52" font-family="Segoe UI" font-size="14" lengthAdjust="spacing" textLength="140.082" x="1320" y="829.4551">created_at : timestamp</text><text fill="#123B52" font-family="Segoe UI" font-size="14" lengthAdjust="spacing" textLength="145.8242" x="1320" y="848.0762">updated_at : timestamp</text><line style="stroke:#181818;stroke-width:1;" x1="1315" x2="1628.4131" y1="855.5898" y2="855.5898"/><text fill="#123B52" font-family="Segoe UI" font-size="14" lengthAdjust="spacing" textLength="303.4131" x="1320" y="874.6973">CHECK status AVAILABLE / RESERVED / BLOCKED</text><text fill="#123B52" font-family="Segoe UI" font-size="14" lengthAdjust="spacing" textLength="160.002" x="1320" y="893.3184">CHECK duraci&#243;n = 30 min</text><text fill="#123B52" font-family="Segoe UI" font-size="14" lengthAdjust="spacing" textLength="265.3369" x="1320" y="911.9395">UNIQUE (schedule_id, slot_date, start_time)</text><text fill="#123B52" font-family="Segoe UI" font-size="14" lengthAdjust="spacing" textLength="278.5645" x="1320" y="930.5605">EXCLUDE solapamiento por schedule + fecha</text></g><!--class appointments--><g class="entity" data-entity="appointments" data-source-line="122" data-uid="ent0011" id="entity_appointments"><rect fill="#F1F1F1" height="327.3164" rx="2.5" ry="2.5" style="stroke:#181818;stroke-width:0.5;" width="415.8672" x="1689" y="378.6211"/><ellipse cx="1849.7676" cy="394.6211" fill="#ADD1B2" rx="11" ry="11" style="stroke:#181818;stroke-width:1;"/><path d="M1848.627,395.418 L1848.627,397.918 L1852.9551,397.918 L1852.9551,396.9961 Q1852.9551,396.3867 1853.1895,396.1211 Q1853.4395,395.8555 1853.8145,395.8555 Q1854.1895,395.8555 1854.4238,396.1211 Q1854.6582,396.3867 1854.6582,396.9961 L1854.6582,399.6211 L1846.6582,399.6211 Q1846.0332,399.6211 1845.7676,399.3867 Q1845.5176,399.1523 1845.5176,398.7617 Q1845.5176,398.3867 1845.7832,398.1523 Q1846.0488,397.918 1846.6582,397.918 L1846.9238,397.918 L1846.9238,391.2617 L1846.6582,391.2617 Q1846.0332,391.2617 1845.7676,391.0273 Q1845.5176,390.793 1845.5176,390.4023 Q1845.5176,390.0273 1845.7676,389.793 Q1846.0332,389.5586 1846.6582,389.5586 L1854.2832,389.5586 L1854.2832,392.1523 Q1854.2832,392.7617 1854.0488,393.0273 Q1853.8301,393.2773 1853.4395,393.2773 Q1853.0645,393.2773 1852.8301,393.0273 Q1852.5957,392.7617 1852.5957,392.1523 L1852.5957,391.2617 L1848.627,391.2617 L1848.627,393.7148 L1850.1113,393.7148 Q1850.1113,393.0586 1850.2363,392.8711 Q1850.502,392.4648 1850.9707,392.4648 Q1851.3457,392.4648 1851.5801,392.7305 Q1851.8145,392.9805 1851.8145,393.5898 L1851.8145,395.5586 Q1851.8145,396.1055 1851.6895,396.293 Q1851.4238,396.6836 1850.9707,396.6836 Q1850.502,396.6836 1850.2363,396.2773 Q1850.1113,396.0898 1850.1113,395.418 L1848.627,395.418 Z " fill="#123B52"/><text fill="#123B52" font-family="Segoe UI" font-size="14" lengthAdjust="spacing" textLength="85.832" x="1870.2676" y="400.418">appointments</text><line style="stroke:#181818;stroke-width:0.5;" x1="1690" x2="2103.8672" y1="410.6211" y2="410.6211"/><text fill="#123B52" font-family="Segoe UI" font-size="14" lengthAdjust="spacing" textLength="78.0664" x="1695" y="429.7285">id : uuid [PK]</text><text fill="#123B52" font-family="Segoe UI" font-size="14" lengthAdjust="spacing" textLength="126.3486" x="1695" y="448.3496">patient_id : uuid [FK]</text><text fill="#123B52" font-family="Segoe UI" font-size="14" lengthAdjust="spacing" textLength="157.7871" x="1695" y="466.9707">professional_id : uuid [FK]</text><text fill="#123B52" font-family="Segoe UI" font-size="14" lengthAdjust="spacing" textLength="105.1504" x="1695" y="485.5918">slot_id : uuid [FK]</text><text fill="#123B52" font-family="Segoe UI" font-size="14" lengthAdjust="spacing" textLength="201.4414" x="1695" y="504.2129">appointment_status : varchar[30]</text><text fill="#123B52" font-family="Segoe UI" font-size="14" lengthAdjust="spacing" textLength="190.1553" x="1695" y="522.834">flow_stage : varchar[30] [NULL]</text><text fill="#123B52" font-family="Segoe UI" font-size="14" lengthAdjust="spacing" textLength="120.873" x="1695" y="541.4551">reason : text [NULL]</text><text fill="#123B52" font-family="Segoe UI" font-size="14" lengthAdjust="spacing" textLength="197.1963" x="1695" y="560.0762">cancelled_at : timestamp [NULL]</text><text fill="#123B52" font-family="Segoe UI" font-size="14" lengthAdjust="spacing" textLength="184.0303" x="1695" y="578.6973">cancelled_by : uuid [FK, NULL]</text><text fill="#123B52" font-family="Segoe UI" font-size="14" lengthAdjust="spacing" textLength="140.082" x="1695" y="597.3184">created_at : timestamp</text><text fill="#123B52" font-family="Segoe UI" font-size="14" lengthAdjust="spacing" textLength="145.8242" x="1695" y="615.9395">updated_at : timestamp</text><text fill="#123B52" font-family="Segoe UI" font-size="14" lengthAdjust="spacing" textLength="260.3398" x="1695" y="634.5605">rescheduled_from_id : uuid [FK, UQ, NULL]</text><line style="stroke:#181818;stroke-width:1;" x1="1690" x2="2103.8672" y1="642.0742" y2="642.0742"/><text fill="#123B52" font-family="Segoe UI" font-size="14" lengthAdjust="spacing" textLength="246.832" x="1695" y="661.1816">CHECK appointment_status / flow_stage</text><text fill="#123B52" font-family="Segoe UI" font-size="14" lengthAdjust="spacing" textLength="403.8672" x="1695" y="679.8027">UNIQUE parcial slot_id: SCHEDULED / CONFIRMED / COMPLETED</text><text fill="#123B52" font-family="Segoe UI" font-size="14" lengthAdjust="spacing" textLength="349.624" x="1695" y="698.4238">UNIQUE rescheduled_from_id; CHECK no autorreferencia</text></g><g class="entity" data-entity="GMN27" data-source-line="172" data-uid="ent0028" id="entity_GMN27"><path d="M1768,740.6211 L1768,785.2031 A0,0 0 0 0 1768,785.2031 L2025.5962,785.2031 A0,0 0 0 0 2025.5962,785.2031 L2025.5962,750.6211 L2015.5962,740.6211 L1901,740.6211 L1897,705.6311 L1893,740.6211 L1768,740.6211 A0,0 0 0 0 1768,740.6211" fill="#FEFFDD" style="stroke:#181818;stroke-width:0.5;"/><path d="M2015.5962,740.6211 L2015.5962,750.6211 L2025.5962,750.6211 L2015.5962,740.6211" fill="#FEFFDD" style="stroke:#181818;stroke-width:0.5;"/><text fill="#123B52" font-family="Segoe UI" font-size="13" lengthAdjust="spacing" textLength="236.5962" x="1774" y="759.6494">V5: triggers diferidos verifican coherencia</text><text fill="#123B52" font-family="Segoe UI" font-size="13" lengthAdjust="spacing" textLength="210.8247" x="1774" y="776.9404">entre cita ocupante y slot RESERVED.</text></g><!--link users to appointments--><g class="link" data-entity-1="users" data-entity-2="appointments" data-source-line="141" data-uid="lnk12" id="link_users_appointments"><path codeLine="141" d="M239.05,259.8711 C633.33,259.8711 1897,259.8711 1897,259.8711 C1897,259.8711 1897,316.0911 1897,378.3411" fill="none" id="users-appointments" style="stroke:#1E5A78;stroke-width:1;"/><text fill="#123B52" font-family="Segoe UI" font-size="13" lengthAdjust="spacing" textLength="72.8584" x="1054.26" y="274.8994">cancelled_by</text><text fill="#123B52" font-family="Segoe UI" font-size="13" lengthAdjust="spacing" textLength="19.6523" x="247.1141" y="266.7551">0..1</text><text fill="#123B52" font-family="Segoe UI" font-size="13" lengthAdjust="spacing" textLength="18.0654" x="1878.5967" y="367.5624">0..*</text></g><!--link patients to appointments--><g class="link" data-entity-1="patients" data-entity-2="appointments" data-source-line="143" data-uid="lnk13" id="link_patients_appointments"><path codeLine="143" d="M891.06,467.3711 C1093.55,467.3711 1458.61,467.3711 1688.83,467.3711" fill="none" id="patients-appointments" style="stroke:#1E5A78;stroke-width:1;"/><text fill="#123B52" font-family="Segoe UI" font-size="13" lengthAdjust="spacing" textLength="56.5703" x="1232.94" y="482.3994">patient_id</text><text fill="#123B52" font-family="Segoe UI" font-size="13" lengthAdjust="spacing" textLength="7.0078" x="898.849" y="484.7437">1</text><text fill="#123B52" font-family="Segoe UI" font-size="13" lengthAdjust="spacing" textLength="18.0654" x="1663.029" y="479.0181">0..*</text></g><!--link professionals to appointments--><g class="link" data-entity-1="professionals" data-entity-2="appointments" data-source-line="145" data-uid="lnk14" id="link_professionals_appointments"><path codeLine="145" d="M536.07,609.1211 C786.87,609.1211 1373.84,609.1211 1688.7,609.1211" fill="none" id="professionals-appointments" style="stroke:#1E5A78;stroke-width:1;"/><text fill="#123B52" font-family="Segoe UI" font-size="13" lengthAdjust="spacing" textLength="85.7632" x="1026.39" y="624.1494">professional_id</text><text fill="#123B52" font-family="Segoe UI" font-size="13" lengthAdjust="spacing" textLength="7.0078" x="543.892" y="622.0906">1</text><text fill="#123B52" font-family="Segoe UI" font-size="13" lengthAdjust="spacing" textLength="18.0654" x="1662.8943" y="625.8622">0..*</text></g><!--link availability_slots to appointments--><g class="link" data-entity-1="availability_slots" data-entity-2="appointments" data-source-line="147" data-uid="lnk15" id="link_availability_slots_appointments"><path codeLine="147" d="M1629.03,679.6211 C1648.56,679.6211 1668.74,679.6211 1688.88,679.6211" fill="none" id="availability_slots-appointments" style="stroke:#1E5A78;stroke-width:1;"/><text fill="#123B52" font-family="Segoe UI" font-size="13" lengthAdjust="spacing" textLength="36.8862" x="1621.95" y="675.6494">slot_id</text><text fill="#123B52" font-family="Segoe UI" font-size="13" lengthAdjust="spacing" textLength="7.0078" x="1637.3227" y="687.7671">1</text><text fill="#123B52" font-family="Segoe UI" font-size="13" lengthAdjust="spacing" textLength="18.0654" x="1663.0808" y="681.2849">0..*</text></g><!--link appointments to appointments--><g class="link" data-entity-1="appointments" data-entity-2="appointments" data-source-line="149" data-uid="lnk16" id="link_appointments_appointments"><path codeLine="149" d="M1688.66,692.6211 C1670.59,692.6211 1659,692.6211 1659,692.6211 C1659,692.6211 1659,723.1211 1659,723.1211 C1659,723.1211 2123,723.1211 2123,723.1211 C2123,723.1211 2123,542.1211 2123,542.1211 C2123,542.1211 2116.32,542.1211 2105.27,542.1211" fill="none" id="appointments-appointments" style="stroke:#1E5A78;stroke-width:1;"/><text fill="#123B52" font-family="Segoe UI" font-size="13" lengthAdjust="spacing" textLength="118.606" x="1966.29" y="728.6494">rescheduled_from_id</text><text fill="#123B52" font-family="Segoe UI" font-size="13" lengthAdjust="spacing" textLength="19.6523" x="1661.166" y="712.8599">0..1</text><text fill="#123B52" font-family="Segoe UI" font-size="13" lengthAdjust="spacing" textLength="19.6523" x="2113.1102" y="556.4544">0..1</text></g><!--link schedules to availability_slots--><g class="link" data-entity-1="schedules" data-entity-2="availability_slots" data-source-line="151" data-uid="lnk17" id="link_schedules_availability_slots"><path codeLine="151" d="M1254.18,802.1211 C1273.86,802.1211 1294.06,802.1211 1313.83,802.1211" fill="none" id="schedules-availability_slots" style="stroke:#1E5A78;stroke-width:1;"/><text fill="#123B52" font-family="Segoe UI" font-size="13" lengthAdjust="spacing" textLength="66.8345" x="1217.01" y="798.1494">schedule_id</text><text fill="#123B52" font-family="Segoe UI" font-size="13" lengthAdjust="spacing" textLength="7.0078" x="1262.1803" y="816.3355">1</text><text fill="#123B52" font-family="Segoe UI" font-size="13" lengthAdjust="spacing" textLength="18.0654" x="1287.7485" y="816.5572">0..*</text></g><!--link users to patients--><g class="link" data-entity-1="users" data-entity-2="patients" data-source-line="153" data-uid="lnk18" id="link_users_patients"><path codeLine="153" d="M239.35,346.2911 C340.24,346.2911 486.79,346.2911 595.91,346.2911" fill="none" id="users-patients" style="stroke:#1E5A78;stroke-width:1;"/><text fill="#123B52" font-family="Segoe UI" font-size="13" lengthAdjust="spacing" textLength="40.3901" x="376.63" y="361.3194">user_id</text><text fill="#123B52" font-family="Segoe UI" font-size="13" lengthAdjust="spacing" textLength="19.6523" x="247.039" y="358.7899">0..1</text><text fill="#123B52" font-family="Segoe UI" font-size="13" lengthAdjust="spacing" textLength="19.6523" x="568.3368" y="357.2448">0..1</text></g><!--link professionals to professional_specialties--><g class="link" data-entity-1="professionals" data-entity-2="professional_specialties" data-source-line="155" data-uid="lnk19" id="link_professionals_professional_specialties"><path codeLine="155" d="M527,723.3711 C527,739.7911 527,751.8711 527,751.8711 C527,751.8711 589.23,751.8711 646.96,751.8711" fill="none" id="professionals-professional_specialties" style="stroke:#1E5A78;stroke-width:1;"/><text fill="#123B52" font-family="Segoe UI" font-size="13" lengthAdjust="spacing" textLength="85.7632" x="486.73" y="766.8994">professional_id</text><text fill="#123B52" font-family="Segoe UI" font-size="13" lengthAdjust="spacing" textLength="7.0078" x="528.7805" y="745.492">1</text><text fill="#123B52" font-family="Segoe UI" font-size="13" lengthAdjust="spacing" textLength="18.0654" x="620.8967" y="764.6954">0..*</text></g><!--link specialties to professional_specialties--><g class="link" data-entity-1="specialties" data-entity-2="professional_specialties" data-source-line="157" data-uid="lnk20" id="link_specialties_professional_specialties"><path codeLine="157" d="M516.64,794.3711 C557.94,794.3711 605.75,794.3711 646.79,794.3711" fill="none" id="specialties-professional_specialties" style="stroke:#1E5A78;stroke-width:1;"/><text fill="#123B52" font-family="Segoe UI" font-size="13" lengthAdjust="spacing" textLength="65.7681" x="515.72" y="790.3994">specialty_id</text><text fill="#123B52" font-family="Segoe UI" font-size="13" lengthAdjust="spacing" textLength="7.0078" x="524.4935" y="804.0906">1</text><text fill="#123B52" font-family="Segoe UI" font-size="13" lengthAdjust="spacing" textLength="18.0654" x="621.0433" y="810.3657">0..*</text></g><!--link users to professionals--><g class="link" data-entity-1="users" data-entity-2="professionals" data-source-line="159" data-uid="lnk21" id="link_users_professionals"><path codeLine="159" d="M239.05,426.4511 C283.17,426.4511 323,426.4511 323,426.4511 C323,426.4511 323,488.5611 323,544.8511" fill="none" id="users-professionals" style="stroke:#1E5A78;stroke-width:1;"/><text fill="#123B52" font-family="Segoe UI" font-size="13" lengthAdjust="spacing" textLength="40.3901" x="282" y="458.7094">user_id</text><text fill="#123B52" font-family="Segoe UI" font-size="13" lengthAdjust="spacing" textLength="19.6523" x="247.1141" y="444.0067">0..1</text><text fill="#123B52" font-family="Segoe UI" font-size="13" lengthAdjust="spacing" textLength="19.6523" x="295.4166" y="533.7805">0..1</text></g><!--link professional_specialties to schedules--><g class="link" data-entity-1="professional_specialties" data-entity-2="schedules" data-source-line="161" data-uid="lnk22" id="link_professional_specialties_schedules"><path codeLine="161" d="M840.18,776.1211 C874.24,776.1211 913.39,776.1211 950.88,776.1211" fill="none" id="professional_specialties-schedules" style="stroke:#1E5A78;stroke-width:1;"/><text fill="#123B52" font-family="Segoe UI" font-size="13" lengthAdjust="spacing" textLength="157.9106" x="737.53" y="772.1494">professional_id, specialty_id</text><text fill="#123B52" font-family="Segoe UI" font-size="13" lengthAdjust="spacing" textLength="7.0078" x="847.5512" y="790.7754">1</text><text fill="#123B52" font-family="Segoe UI" font-size="13" lengthAdjust="spacing" textLength="18.0654" x="925.1003" y="789.0648">0..*</text></g><!--link professionals to schedules--><g class="link" data-entity-1="professionals" data-entity-2="schedules" data-source-line="163" data-uid="lnk23" id="link_professionals_schedules"><path codeLine="163" d="M536.04,692.6211 C651.01,692.6211 825.94,692.6211 950.97,692.6211" fill="none" id="professionals-schedules" style="stroke:#1E5A78;stroke-width:1;"/><text fill="#123B52" font-family="Segoe UI" font-size="13" lengthAdjust="spacing" textLength="85.7632" x="657.5" y="707.6494">professional_id</text><text fill="#123B52" font-family="Segoe UI" font-size="13" lengthAdjust="spacing" textLength="7.0078" x="543.86" y="710.9398">1</text><text fill="#123B52" font-family="Segoe UI" font-size="13" lengthAdjust="spacing" textLength="18.0654" x="924.693" y="701.1894">0..*</text></g><!--link specialties to schedules--><g class="link" data-entity-1="specialties" data-entity-2="schedules" data-source-line="165" data-uid="lnk24" id="link_specialties_schedules"><path codeLine="165" d="M516.74,883.3711 C630.57,883.3711 818.49,883.3711 950.73,883.3711" fill="none" id="specialties-schedules" style="stroke:#1E5A78;stroke-width:1;"/><text fill="#123B52" font-family="Segoe UI" font-size="13" lengthAdjust="spacing" textLength="65.7681" x="667.73" y="898.3994">specialty_id</text><text fill="#123B52" font-family="Segoe UI" font-size="13" lengthAdjust="spacing" textLength="7.0078" x="524.6011" y="899.9047">1</text><text fill="#123B52" font-family="Segoe UI" font-size="13" lengthAdjust="spacing" textLength="18.0654" x="924.943" y="901.5097">0..*</text></g><!--link roles to user_roles--><g class="link" data-entity-1="roles" data-entity-2="user_roles" data-source-line="167" data-uid="lnk25" id="link_roles_user_roles"><path codeLine="167" d="M203.08,102.9511 C247.54,102.9511 302.39,102.9511 345.48,102.9511" fill="none" id="roles-user_roles" style="stroke:#1E5A78;stroke-width:1;"/><text fill="#123B52" font-family="Segoe UI" font-size="13" lengthAdjust="spacing" textLength="38.2827" x="235.28" y="117.9794">role_id</text><text fill="#123B52" font-family="Segoe UI" font-size="13" lengthAdjust="spacing" textLength="7.0078" x="211.2971" y="116.4304">1</text><text fill="#123B52" font-family="Segoe UI" font-size="13" lengthAdjust="spacing" textLength="18.0654" x="319.5198" y="116.4237">0..*</text></g><!--link users to user_roles--><g class="link" data-entity-1="users" data-entity-2="user_roles" data-source-line="169" data-uid="lnk26" id="link_users_user_roles"><path codeLine="169" d="M221,253.5211 C221,192.0511 221,131.2911 221,131.2911 C221,131.2911 289.37,131.2911 345.45,131.2911" fill="none" id="users-user_roles" style="stroke:#1E5A78;stroke-width:1;"/><text fill="#123B52" font-family="Segoe UI" font-size="13" lengthAdjust="spacing" textLength="40.3901" x="223.11" y="146.3194">user_id</text><text fill="#123B52" font-family="Segoe UI" font-size="13" lengthAdjust="spacing" textLength="7.0078" x="219.759" y="242.3307">1</text><text fill="#123B52" font-family="Segoe UI" font-size="13" lengthAdjust="spacing" textLength="18.0654" x="319.4869" y="147.5534">0..*</text></g><g class="footer" data-source-line="176"><text fill="#123B52" font-family="Segoe UI" font-size="10" lengthAdjust="spacing" textLength="326.3867" x="899.6879" y="968.9863">PostgreSQL V5 | 10 tablas | varchar[n] equivale a varchar(n) en PostgreSQL</text></g><!--SRC=[jLXVR-9647_tfnZHbqlBvU1IxYfEhKG8w518812YIb645diDgvXTTtTDIflxCFq0VUfRN_F5EcjilCQ6f6cF1splpEpC_ERVsfhfWCBdmNZOksxrX_tMTNSmke1760gbvvAEh_fmqsW2V_hR3QW0Zq98N4QvfWhMu39Db1DGNuCM8DbyeS5ZahgQ2UweUyP38iaIPiIzdqiHSQyj0Y7XcsxyipZKWdZYWV4v-2HGrA9ur2THeBk2wqkof32cSq5XqYjdIVQllpyvRRotM5fIYeUKs6cqFlvW4GF6gLw758JK2s4Ht80erT9QibcaQSyLVCn-er2pM10AfjVmkmDmMl3oOxVLRHkAa1wLUVK0HNitQx6EUiFvuZXEidqbKbIg2X05yLsiZtdGX2Z2o-tm_0uN38aRZ9gm8j9T47bRhzNku7PoPSXqILXWqTut6bjQY8u-e9NJ1L4BvD7qLutBFfDAJqltl9pq-qOI8Ng6Wt8o2wWnTYP4G0d7DOy6L5DlIhHHnfPKQR8CCnbNKbAa6nz3hvpmzYt-jJztskU9e-iC3vVmfxyuSuKoeAQOIZHcWsbyLuxfZcUD34wFAbUoqAHw0jZhpV-IZ_GqCorxZEsB7tD6Lg4R6sfuoYZMrY7HfdGt6wSF-rF9tgsBkqskgf0ww0atMgBuDAwR73usbKVB6PK5-enXeKqD4aYABrlameNW1S1J8l4yIPKgmFt_PnFZAfA4kxcipjaIvzlaidSrwS2R71pLNV-FjfbvTjc3Tz3kuD-mDHuF1wDhM3tz4J1Fv08bXOz-OcPXCzn4orvvNSW2vbAkQ34cTe_ugdMPjw09tmE13-0z_JbdEb-QAgGk8m5cwCPzw_b5PLf_OPqId5Gh-bKxqvwmJdTTt4UC_SqHIyi_bLW_qmEKkw1Ub7QNxLCvgllK7b2v8NbaFHN-z87IUwGmF2xCgJGYcaWi4XO7orpYyU3jh9H4vT_ddKlCIGMDGoSqdaXs1f2LbhQnjUFZ3vyoatwoB4R-pi_j_kIia-0ImmBVcGGcU35UoXK9HER1O5HYXXqDii99HMOiC1mg44blBYwNnoSDNqbiKCXki2_67hbqfAnIEgdzvxfFzcpTj7hzrcdVTBzHPzmPtNJEyFQqFsYVTywoS63ZTHdEQ_WHJcgmPDngj9R7rSp9gkNSaHKd9GA4Vsdcd80G3rgfE8RBf-XUBXPXA326o-s4j1VsrCTcXXRXVwPmZDs5LKlTT4yK_40y6DgSvabPTy8mgRBpY1bbGN2ehMqvPklS27bzvyTHdS3jJNqfbeU6avKj9JYyippFaW4FuAR_f70sOOmRd4twSLQr1vVTtkWYkRyOzZlNSOubiYMsVKhqSm4aqa9AwbD9EQemMR8vTbUmFzGhQ6ryzsqbdoFD78gEiprYLGx9P4c44hanVrWidsAEKz8q3cwGm8Q2zdhUmtf1gWGunyd6o8x6eabDkscLmuftM-IQwR7cC3PxXsS9JZRvnRlOisw_rJaBzvW-tQy_Wx5WTdN7WaDW7DZcaFUsM5xPvlKZpsszbpJJTuyjCFivjv1md8OuZhKMIn1-BikmIiqt1tphdi_DTXx3GiGJie8LNds6HGQkMAJ5QQQObZJ-605uy0u93c9y-pFvjfqpnzZcFJ1A7SSNU97vJnpm2FKQQ7nHnSR_kEsj_0xeBn73gKxnh9gilk57gDAIT_u1]--></g></svg>